<svg width="32" height="10" viewBox="0 0 32 10" fill="none" xmlns="http://www.w3.org/2000/svg">
<mask id="path-1-inside-1_13_5" fill="white">
<path stroke="white" stroke-width="0.3" d="M3.9082 4.75586L3.65625 5.1543L0.603516 0.296875H1.10156L3.9082 4.75586ZM5.98828 7.92578L6.23438 7.52734L7.79297 10H7.29492L5.98828 7.92578ZM4.40625 3.9707L4.1543 4.36328L1.59961 0.296875H2.0918L4.40625 3.9707ZM6.48633 7.13477L6.73242 6.73633L8.78906 10H8.29102L6.48633 7.13477ZM4.9043 3.17383L4.6582 3.56641L2.5957 0.296875H3.09375L4.9043 3.17383ZM6.99023 6.33789L7.23633 5.93945L9.79102 10H9.29297L6.99023 6.33789ZM5.40234 2.38281L5.15625 2.78125L3.5918 0.296875H4.08984L5.40234 2.38281ZM7.48242 5.54688L7.72852 5.14844L10.7871 10H10.2891L7.48242 5.54688ZM9.99609 0.296875H10.4941L4.38867 10H3.89062L9.99609 0.296875ZM9.00586 0.296875H9.49805L3.39258 10H2.89453L9.00586 0.296875ZM8.00391 0.296875H8.50195L2.39062 10H1.89258L8.00391 0.296875ZM7.00781 0.296875H7.50586L1.39453 10H0.896484L7.00781 0.296875ZM20.7715 0.296875H21.1934V10H20.7715V0.296875ZM11.4902 0.296875H11.9121V10H11.4902V0.296875ZM19.9277 0.296875H20.3496V10H19.9277V0.296875ZM19.084 0.296875H19.5059V10H19.084V0.296875ZM18.2402 0.296875H18.6621V10H18.2402V6.19727H14.4434V10H14.0215V0.296875H14.4434V4.08789H18.2402V0.296875ZM13.1777 0.296875H13.5996V10H13.1777V0.296875ZM12.334 0.296875H12.7559V10H12.334V0.296875ZM18.2402 5.77539V5.35352H14.4434V5.77539H18.2402ZM18.2402 4.93164V4.50977H14.4434V4.93164H18.2402ZM31.5879 0.296875H32.0098V10H31.5879V0.296875ZM22.3066 0.296875H22.7285V10H22.3066V0.296875ZM30.7441 0.296875H31.166V10H30.7441V0.296875ZM29.9004 0.296875H30.3223V10H29.9004V0.296875ZM29.0566 0.296875H29.4785V10H29.0566V6.19727H25.2598V10H24.8379V0.296875H25.2598V4.08789H29.0566V0.296875ZM23.9941 0.296875H24.416V10H23.9941V0.296875ZM23.1504 0.296875H23.5723V10H23.1504V0.296875ZM29.0566 5.77539V5.35352H25.2598V5.77539H29.0566ZM29.0566 4.93164V4.50977H25.2598V4.93164H29.0566Z"/>
</mask>
<path d="M3.9082 4.75586L4.7534 5.29032L5.09058 4.75709L4.75451 4.22316L3.9082 4.75586ZM3.65625 5.1543L2.80957 5.68641L3.65364 7.02946L4.50144 5.68876L3.65625 5.1543ZM0.603516 0.296875V-0.703125H-1.20604L-0.24316 0.828984L0.603516 0.296875ZM1.10156 0.296875L1.94787 -0.23582L1.65373 -0.703125H1.10156V0.296875ZM5.98828 7.92578L5.13748 7.40029L4.80969 7.931L5.14217 8.45878L5.98828 7.92578ZM6.23438 7.52734L7.08034 6.99411L6.22575 5.63833L5.38358 7.00185L6.23438 7.52734ZM7.79297 10V11H9.60538L8.63893 9.46676L7.79297 10ZM7.29492 10L6.44881 10.533L6.74299 11H7.29492V10ZM4.40625 3.9707L5.24784 4.51083L5.59129 3.97568L5.25235 3.43768L4.40625 3.9707ZM4.1543 4.36328L3.30753 4.89525L4.14529 6.22875L4.99588 4.9034L4.1543 4.36328ZM1.59961 0.296875V-0.703125H-0.209602L0.752847 0.828847L1.59961 0.296875ZM2.0918 0.296875L2.93789 -0.236153L2.64371 -0.703125H2.0918V0.296875ZM6.48633 7.13477L5.63553 6.60927L5.30776 7.13995L5.64018 7.66772L6.48633 7.13477ZM6.73242 6.73633L7.57845 6.20319L6.72391 4.84713L5.88162 6.21084L6.73242 6.73633ZM8.78906 10V11H10.6012L9.63509 9.46686L8.78906 10ZM8.29102 10L7.44487 10.533L7.73904 11H8.29102V10ZM4.9043 3.17383L5.75158 3.70496L6.08519 3.17279L5.75064 2.6412L4.9043 3.17383ZM4.6582 3.56641L3.81243 4.09994L4.66087 5.44492L5.50549 4.09754L4.6582 3.56641ZM2.5957 0.296875V-0.703125H0.782534L1.74993 0.830412L2.5957 0.296875ZM3.09375 0.296875L3.9401 -0.235755L3.64597 -0.703125H3.09375V0.296875ZM6.99023 6.33789L6.13944 5.8124L5.81194 6.34262L6.14369 6.8702L6.99023 6.33789ZM7.23633 5.93945L8.08274 5.40693L7.2285 4.04915L6.38553 5.41396L7.23633 5.93945ZM9.79102 10V11H11.6016L10.6374 9.46748L9.79102 10ZM9.29297 10L8.44642 10.5323L8.7405 11H9.29297V10ZM5.40234 2.38281L6.25314 2.90831L6.58074 2.3779L6.24874 1.85025L5.40234 2.38281ZM5.15625 2.78125L4.31005 3.31412L5.16446 4.67093L6.00705 3.30674L5.15625 2.78125ZM3.5918 0.296875V-0.703125H1.78033L2.7456 0.829741L3.5918 0.296875ZM4.08984 0.296875L4.93624 -0.235686L4.64212 -0.703125H4.08984V0.296875ZM7.48242 5.54688L6.63162 5.02138L6.30375 5.55223L6.63643 6.08007L7.48242 5.54688ZM7.72852 5.14844L8.57444 4.61514L7.71982 3.25954L6.87772 4.62294L7.72852 5.14844ZM10.7871 10V11H12.5997L11.633 9.4667L10.7871 10ZM10.2891 10L9.44307 10.5332L9.73728 11H10.2891V10ZM9.99609 0.296875V-0.703125H9.44383L9.14971 -0.235694L9.99609 0.296875ZM10.4941 0.296875L11.3405 0.829444L12.3049 -0.703125H10.4941V0.296875ZM4.38867 10V11H4.94094L5.23506 10.5326L4.38867 10ZM3.89062 10L3.04424 9.46743L2.0799 11H3.89062V10ZM9.00586 0.296875V-0.703125H8.45388L8.1597 -0.23606L9.00586 0.296875ZM9.49805 0.296875L10.3444 0.829444L11.3088 -0.703125H9.49805V0.296875ZM3.39258 10V11H3.94484L4.23896 10.5326L3.39258 10ZM2.89453 10L2.04838 9.46706L1.08289 11H2.89453V10ZM8.00391 0.296875V-0.703125H7.45192L7.15775 -0.23606L8.00391 0.296875ZM8.50195 0.296875L9.34811 0.82981L10.3136 -0.703125H8.50195V0.296875ZM2.39062 10V11H2.94261L3.23678 10.5329L2.39062 10ZM1.89258 10L1.04642 9.46706L0.0809321 11H1.89258V10ZM7.00781 0.296875V-0.703125H6.45583L6.16166 -0.23606L7.00781 0.296875ZM7.50586 0.296875L8.35202 0.82981L9.31751 -0.703125H7.50586V0.296875ZM1.39453 10V11H1.94652L2.24069 10.5329L1.39453 10ZM0.896484 10L0.0503283 9.46706L-0.915162 11H0.896484V10ZM3.06301 4.2214L2.81106 4.61984L4.50144 5.68876L4.7534 5.29032L3.06301 4.2214ZM4.50293 4.62219L1.45019 -0.235234L-0.24316 0.828984L2.80957 5.68641L4.50293 4.62219ZM0.603516 1.29688H1.10156V-0.703125H0.603516V1.29688ZM0.255255 0.82957L3.0619 5.28855L4.75451 4.22316L1.94787 -0.23582L0.255255 0.82957ZM6.83908 8.45127L7.08517 8.05284L5.38358 7.00185L5.13748 7.40029L6.83908 8.45127ZM5.38841 8.06058L6.947 10.5332L8.63893 9.46676L7.08034 6.99411L5.38841 8.06058ZM7.79297 9H7.29492V11H7.79297V9ZM8.14103 9.467L6.83439 7.39278L5.14217 8.45878L6.44881 10.533L8.14103 9.467ZM3.56466 3.43058L3.31271 3.82316L4.99588 4.9034L5.24784 4.51083L3.56466 3.43058ZM5.00106 3.83131L2.44637 -0.235097L0.752847 0.828847L3.30753 4.89525L5.00106 3.83131ZM1.59961 1.29688H2.0918V-0.703125H1.59961V1.29688ZM1.2457 0.829903L3.56015 4.50373L5.25235 3.43768L2.93789 -0.236153L1.2457 0.829903ZM7.33713 7.66026L7.58322 7.26182L5.88162 6.21084L5.63553 6.60927L7.33713 7.66026ZM5.88639 7.26946L7.94303 10.5331L9.63509 9.46686L7.57845 6.20319L5.88639 7.26946ZM8.78906 9H8.29102V11H8.78906V9ZM9.13716 9.46705L7.33247 6.60181L5.64018 7.66772L7.44487 10.533L9.13716 9.46705ZM4.05701 2.64269L3.81092 3.03527L5.50549 4.09754L5.75158 3.70496L4.05701 2.64269ZM5.50398 3.03287L3.44148 -0.236662L1.74993 0.830412L3.81243 4.09994L5.50398 3.03287ZM2.5957 1.29688H3.09375V-0.703125H2.5957V1.29688ZM2.2474 0.829505L4.05795 3.70646L5.75064 2.6412L3.9401 -0.235755L2.2474 0.829505ZM7.84103 6.86338L8.08713 6.46495L6.38553 5.41396L6.13944 5.8124L7.84103 6.86338ZM6.38991 6.47197L8.9446 10.5325L10.6374 9.46748L8.08274 5.40693L6.38991 6.47197ZM9.79102 9H9.29297V11H9.79102V9ZM10.1395 9.46769L7.83678 5.80558L6.14369 6.8702L8.44642 10.5323L10.1395 9.46769ZM4.55155 1.85732L4.30545 2.25576L6.00705 3.30674L6.25314 2.90831L4.55155 1.85732ZM6.00245 2.24838L4.438 -0.235991L2.7456 0.829741L4.31005 3.31412L6.00245 2.24838ZM3.5918 1.29688H4.08984V-0.703125H3.5918V1.29688ZM3.24345 0.829436L4.55595 2.91537L6.24874 1.85025L4.93624 -0.235686L3.24345 0.829436ZM8.33322 6.07237L8.57931 5.67393L6.87772 4.62294L6.63162 5.02138L8.33322 6.07237ZM6.88259 5.68174L9.94118 10.5333L11.633 9.4667L8.57444 4.61514L6.88259 5.68174ZM10.7871 9H10.2891V11H10.7871V9ZM11.1351 9.4668L8.32841 5.01368L6.63643 6.08007L9.44307 10.5332L11.1351 9.4668ZM9.99609 1.29688H10.4941V-0.703125H9.99609V1.29688ZM9.64775 -0.235694L3.54229 9.46743L5.23506 10.5326L11.3405 0.829444L9.64775 -0.235694ZM4.38867 9H3.89062V11H4.38867V9ZM4.73701 10.5326L10.8425 0.829444L9.14971 -0.235694L3.04424 9.46743L4.73701 10.5326ZM9.00586 1.29688H9.49805V-0.703125H9.00586V1.29688ZM8.65166 -0.235694L2.54619 9.46743L4.23896 10.5326L10.3444 0.829444L8.65166 -0.235694ZM3.39258 9H2.89453V11H3.39258V9ZM3.74069 10.5329L9.85202 0.82981L8.1597 -0.23606L2.04838 9.46706L3.74069 10.5329ZM8.00391 1.29688H8.50195V-0.703125H8.00391V1.29688ZM7.6558 -0.23606L1.54447 9.46706L3.23678 10.5329L9.34811 0.82981L7.6558 -0.23606ZM2.39062 9H1.89258V11H2.39062V9ZM2.73873 10.5329L8.85006 0.82981L7.15775 -0.23606L1.04642 9.46706L2.73873 10.5329ZM7.00781 1.29688H7.50586V-0.703125H7.00781V1.29688ZM6.6597 -0.23606L0.548375 9.46706L2.24069 10.5329L8.35202 0.82981L6.6597 -0.23606ZM1.39453 9H0.896484V11H1.39453V9ZM1.74264 10.5329L7.85397 0.82981L6.16166 -0.23606L0.0503283 9.46706L1.74264 10.5329ZM20.7715 0.296875V-0.703125H19.7715V0.296875H20.7715ZM21.1934 0.296875H22.1934V-0.703125H21.1934V0.296875ZM21.1934 10V11H22.1934V10H21.1934ZM20.7715 10H19.7715V11H20.7715V10ZM11.4902 0.296875V-0.703125H10.4902V0.296875H11.4902ZM11.9121 0.296875H12.9121V-0.703125H11.9121V0.296875ZM11.9121 10V11H12.9121V10H11.9121ZM11.4902 10H10.4902V11H11.4902V10ZM19.9277 0.296875V-0.703125H18.9277V0.296875H19.9277ZM20.3496 0.296875H21.3496V-0.703125H20.3496V0.296875ZM20.3496 10V11H21.3496V10H20.3496ZM19.9277 10H18.9277V11H19.9277V10ZM19.084 0.296875V-0.703125H18.084V0.296875H19.084ZM19.5059 0.296875H20.5059V-0.703125H19.5059V0.296875ZM19.5059 10V11H20.5059V10H19.5059ZM19.084 10H18.084V11H19.084V10ZM18.2402 0.296875V-0.703125H17.2402V0.296875H18.2402ZM18.6621 0.296875H19.6621V-0.703125H18.6621V0.296875ZM18.6621 10V11H19.6621V10H18.6621ZM18.2402 10H17.2402V11H18.2402V10ZM18.2402 6.19727H19.2402V5.19727H18.2402V6.19727ZM14.4434 6.19727V5.19727H13.4434V6.19727H14.4434ZM14.4434 10V11H15.4434V10H14.4434ZM14.0215 10H13.0215V11H14.0215V10ZM14.0215 0.296875V-0.703125H13.0215V0.296875H14.0215ZM14.4434 0.296875H15.4434V-0.703125H14.4434V0.296875ZM14.4434 4.08789H13.4434V5.08789H14.4434V4.08789ZM18.2402 4.08789V5.08789H19.2402V4.08789H18.2402ZM13.1777 0.296875V-0.703125H12.1777V0.296875H13.1777ZM13.5996 0.296875H14.5996V-0.703125H13.5996V0.296875ZM13.5996 10V11H14.5996V10H13.5996ZM13.1777 10H12.1777V11H13.1777V10ZM12.334 0.296875V-0.703125H11.334V0.296875H12.334ZM12.7559 0.296875H13.7559V-0.703125H12.7559V0.296875ZM12.7559 10V11H13.7559V10H12.7559ZM12.334 10H11.334V11H12.334V10ZM18.2402 5.77539V6.77539H19.2402V5.77539H18.2402ZM18.2402 5.35352H19.2402V4.35352H18.2402V5.35352ZM14.4434 5.35352V4.35352H13.4434V5.35352H14.4434ZM14.4434 5.77539H13.4434V6.77539H14.4434V5.77539ZM18.2402 4.93164V5.93164H19.2402V4.93164H18.2402ZM18.2402 4.50977H19.2402V3.50977H18.2402V4.50977ZM14.4434 4.50977V3.50977H13.4434V4.50977H14.4434ZM14.4434 4.93164H13.4434V5.93164H14.4434V4.93164ZM20.7715 1.29688H21.1934V-0.703125H20.7715V1.29688ZM20.1934 0.296875V10H22.1934V0.296875H20.1934ZM21.1934 9H20.7715V11H21.1934V9ZM21.7715 10V0.296875H19.7715V10H21.7715ZM11.4902 1.29688H11.9121V-0.703125H11.4902V1.29688ZM10.9121 0.296875V10H12.9121V0.296875H10.9121ZM11.9121 9H11.4902V11H11.9121V9ZM12.4902 10V0.296875H10.4902V10H12.4902ZM19.9277 1.29688H20.3496V-0.703125H19.9277V1.29688ZM19.3496 0.296875V10H21.3496V0.296875H19.3496ZM20.3496 9H19.9277V11H20.3496V9ZM20.9277 10V0.296875H18.9277V10H20.9277ZM19.084 1.29688H19.5059V-0.703125H19.084V1.29688ZM18.5059 0.296875V10H20.5059V0.296875H18.5059ZM19.5059 9H19.084V11H19.5059V9ZM20.084 10V0.296875H18.084V10H20.084ZM18.2402 1.29688H18.6621V-0.703125H18.2402V1.29688ZM17.6621 0.296875V10H19.6621V0.296875H17.6621ZM18.6621 9H18.2402V11H18.6621V9ZM19.2402 10V6.19727H17.2402V10H19.2402ZM18.2402 5.19727H14.4434V7.19727H18.2402V5.19727ZM13.4434 6.19727V10H15.4434V6.19727H13.4434ZM14.4434 9H14.0215V11H14.4434V9ZM15.0215 10V0.296875H13.0215V10H15.0215ZM14.0215 1.29688H14.4434V-0.703125H14.0215V1.29688ZM13.4434 0.296875V4.08789H15.4434V0.296875H13.4434ZM14.4434 5.08789H18.2402V3.08789H14.4434V5.08789ZM19.2402 4.08789V0.296875H17.2402V4.08789H19.2402ZM13.1777 1.29688H13.5996V-0.703125H13.1777V1.29688ZM12.5996 0.296875V10H14.5996V0.296875H12.5996ZM13.5996 9H13.1777V11H13.5996V9ZM14.1777 10V0.296875H12.1777V10H14.1777ZM12.334 1.29688H12.7559V-0.703125H12.334V1.29688ZM11.7559 0.296875V10H13.7559V0.296875H11.7559ZM12.7559 9H12.334V11H12.7559V9ZM13.334 10V0.296875H11.334V10H13.334ZM19.2402 5.77539V5.35352H17.2402V5.77539H19.2402ZM18.2402 4.35352H14.4434V6.35352H18.2402V4.35352ZM13.4434 5.35352V5.77539H15.4434V5.35352H13.4434ZM14.4434 6.77539H18.2402V4.77539H14.4434V6.77539ZM19.2402 4.93164V4.50977H17.2402V4.93164H19.2402ZM18.2402 3.50977H14.4434V5.50977H18.2402V3.50977ZM13.4434 4.50977V4.93164H15.4434V4.50977H13.4434ZM14.4434 5.93164H18.2402V3.93164H14.4434V5.93164ZM31.5879 0.296875V-0.703125H30.5879V0.296875H31.5879ZM32.0098 0.296875H33.0098V-0.703125H32.0098V0.296875ZM32.0098 10V11H33.0098V10H32.0098ZM31.5879 10H30.5879V11H31.5879V10ZM22.3066 0.296875V-0.703125H21.3066V0.296875H22.3066ZM22.7285 0.296875H23.7285V-0.703125H22.7285V0.296875ZM22.7285 10V11H23.7285V10H22.7285ZM22.3066 10H21.3066V11H22.3066V10ZM30.7441 0.296875V-0.703125H29.7441V0.296875H30.7441ZM31.166 0.296875H32.166V-0.703125H31.166V0.296875ZM31.166 10V11H32.166V10H31.166ZM30.7441 10H29.7441V11H30.7441V10ZM29.9004 0.296875V-0.703125H28.9004V0.296875H29.9004ZM30.3223 0.296875H31.3223V-0.703125H30.3223V0.296875ZM30.3223 10V11H31.3223V10H30.3223ZM29.9004 10H28.9004V11H29.9004V10ZM29.0566 0.296875V-0.703125H28.0566V0.296875H29.0566ZM29.4785 0.296875H30.4785V-0.703125H29.4785V0.296875ZM29.4785 10V11H30.4785V10H29.4785ZM29.0566 10H28.0566V11H29.0566V10ZM29.0566 6.19727H30.0566V5.19727H29.0566V6.19727ZM25.2598 6.19727V5.19727H24.2598V6.19727H25.2598ZM25.2598 10V11H26.2598V10H25.2598ZM24.8379 10H23.8379V11H24.8379V10ZM24.8379 0.296875V-0.703125H23.8379V0.296875H24.8379ZM25.2598 0.296875H26.2598V-0.703125H25.2598V0.296875ZM25.2598 4.08789H24.2598V5.08789H25.2598V4.08789ZM29.0566 4.08789V5.08789H30.0566V4.08789H29.0566ZM23.9941 0.296875V-0.703125H22.9941V0.296875H23.9941ZM24.416 0.296875H25.416V-0.703125H24.416V0.296875ZM24.416 10V11H25.416V10H24.416ZM23.9941 10H22.9941V11H23.9941V10ZM23.1504 0.296875V-0.703125H22.1504V0.296875H23.1504ZM23.5723 0.296875H24.5723V-0.703125H23.5723V0.296875ZM23.5723 10V11H24.5723V10H23.5723ZM23.1504 10H22.1504V11H23.1504V10ZM29.0566 5.77539V6.77539H30.0566V5.77539H29.0566ZM29.0566 5.35352H30.0566V4.35352H29.0566V5.35352ZM25.2598 5.35352V4.35352H24.2598V5.35352H25.2598ZM25.2598 5.77539H24.2598V6.77539H25.2598V5.77539ZM29.0566 4.93164V5.93164H30.0566V4.93164H29.0566ZM29.0566 4.50977H30.0566V3.50977H29.0566V4.50977ZM25.2598 4.50977V3.50977H24.2598V4.50977H25.2598ZM25.2598 4.93164H24.2598V5.93164H25.2598V4.93164ZM31.5879 1.29688H32.0098V-0.703125H31.5879V1.29688ZM31.0098 0.296875V10H33.0098V0.296875H31.0098ZM32.0098 9H31.5879V11H32.0098V9ZM32.5879 10V0.296875H30.5879V10H32.5879ZM22.3066 1.29688H22.7285V-0.703125H22.3066V1.29688ZM21.7285 0.296875V10H23.7285V0.296875H21.7285ZM22.7285 9H22.3066V11H22.7285V9ZM23.3066 10V0.296875H21.3066V10H23.3066ZM30.7441 1.29688H31.166V-0.703125H30.7441V1.29688ZM30.166 0.296875V10H32.166V0.296875H30.166ZM31.166 9H30.7441V11H31.166V9ZM31.7441 10V0.296875H29.7441V10H31.7441ZM29.9004 1.29688H30.3223V-0.703125H29.9004V1.29688ZM29.3223 0.296875V10H31.3223V0.296875H29.3223ZM30.3223 9H29.9004V11H30.3223V9ZM30.9004 10V0.296875H28.9004V10H30.9004ZM29.0566 1.29688H29.4785V-0.703125H29.0566V1.29688ZM28.4785 0.296875V10H30.4785V0.296875H28.4785ZM29.4785 9H29.0566V11H29.4785V9ZM30.0566 10V6.19727H28.0566V10H30.0566ZM29.0566 5.19727H25.2598V7.19727H29.0566V5.19727ZM24.2598 6.19727V10H26.2598V6.19727H24.2598ZM25.2598 9H24.8379V11H25.2598V9ZM25.8379 10V0.296875H23.8379V10H25.8379ZM24.8379 1.29688H25.2598V-0.703125H24.8379V1.29688ZM24.2598 0.296875V4.08789H26.2598V0.296875H24.2598ZM25.2598 5.08789H29.0566V3.08789H25.2598V5.08789ZM30.0566 4.08789V0.296875H28.0566V4.08789H30.0566ZM23.9941 1.29688H24.416V-0.703125H23.9941V1.29688ZM23.416 0.296875V10H25.416V0.296875H23.416ZM24.416 9H23.9941V11H24.416V9ZM24.9941 10V0.296875H22.9941V10H24.9941ZM23.1504 1.29688H23.5723V-0.703125H23.1504V1.29688ZM22.5723 0.296875V10H24.5723V0.296875H22.5723ZM23.5723 9H23.1504V11H23.5723V9ZM24.1504 10V0.296875H22.1504V10H24.1504ZM30.0566 5.77539V5.35352H28.0566V5.77539H30.0566ZM29.0566 4.35352H25.2598V6.35352H29.0566V4.35352ZM24.2598 5.35352V5.77539H26.2598V5.35352H24.2598ZM25.2598 6.77539H29.0566V4.77539H25.2598V6.77539ZM30.0566 4.93164V4.50977H28.0566V4.93164H30.0566ZM29.0566 3.50977H25.2598V5.50977H29.0566V3.50977ZM24.2598 4.50977V4.93164H26.2598V4.50977H24.2598ZM25.2598 5.93164H29.0566V3.93164H25.2598V5.93164Z" fill="black" style="fill:black;fill-opacity:1;" mask="url(#path-1-inside-1_13_5)"/>
</svg>
