<svg width="30" height="11" viewBox="0 0 33 10" fill="none" xmlns="http://www.w3.org/2000/svg">
<mask id="path-1-inside-1_1_2" fill="white">
<path stroke="white" stroke-width="0.3" d="M3.48633 4.75586L3.23438 5.1543L0.181641 0.296875H0.679688L3.48633 4.75586ZM5.56641 7.92578L5.8125 7.52734L7.37109 10H6.87305L5.56641 7.92578ZM3.98438 3.9707L3.73242 4.36328L1.17773 0.296875H1.66992L3.98438 3.9707ZM6.06445 7.13477L6.31055 6.73633L8.36719 10H7.86914L6.06445 7.13477ZM4.48242 3.17383L4.23633 3.56641L2.17383 0.296875H2.67188L4.48242 3.17383ZM6.56836 6.33789L6.81445 5.93945L9.36914 10H8.87109L6.56836 6.33789ZM4.98047 2.38281L4.73438 2.78125L3.16992 0.296875H3.66797L4.98047 2.38281ZM7.06055 5.54688L7.30664 5.14844L10.3652 10H9.86719L7.06055 5.54688ZM9.57422 0.296875H10.0723L3.9668 10H3.46875L9.57422 0.296875ZM8.58398 0.296875H9.07617L2.9707 10H2.47266L8.58398 0.296875ZM7.58203 0.296875H8.08008L1.96875 10H1.4707L7.58203 0.296875ZM6.58594 0.296875H7.08398L0.972656 10H0.474609L6.58594 0.296875ZM20.3496 0.296875H20.7715V10H20.3496V0.296875ZM11.0684 0.296875H11.4902V10H11.0684V0.296875ZM19.5059 0.296875H19.9277V10H19.5059V0.296875ZM18.6621 0.296875H19.084V10H18.6621V0.296875ZM17.8184 0.296875H18.2402V10H17.8184V6.19727H14.0215V10H13.5996V0.296875H14.0215V4.08789H17.8184V0.296875ZM12.7559 0.296875H13.1777V10H12.7559V0.296875ZM11.9121 0.296875H12.334V10H11.9121V0.296875ZM17.8184 5.77539V5.35352H14.0215V5.77539H17.8184ZM17.8184 4.93164V4.50977H14.0215V4.93164H17.8184ZM31.166 0.296875H31.5879V10H31.166V0.296875ZM21.8848 0.296875H22.3066V10H21.8848V0.296875ZM30.3223 0.296875H30.7441V10H30.3223V0.296875ZM29.4785 0.296875H29.9004V10H29.4785V0.296875ZM28.6348 0.296875H29.0566V10H28.6348V6.19727H24.8379V10H24.416V0.296875H24.8379V4.08789H28.6348V0.296875ZM23.5723 0.296875H23.9941V10H23.5723V0.296875ZM22.7285 0.296875H23.1504V10H22.7285V0.296875ZM28.6348 5.77539V5.35352H24.8379V5.77539H28.6348ZM28.6348 4.93164V4.50977H24.8379V4.93164H28.6348Z"/>
</mask>
<path d="M3.48633 4.75586L4.33152 5.29032L4.66871 4.75709L4.33264 4.22316L3.48633 4.75586ZM3.23438 5.1543L2.3877 5.68641L3.23177 7.02946L4.07957 5.68876L3.23438 5.1543ZM0.181641 0.296875V-0.703125H-1.62792L-0.665035 0.828984L0.181641 0.296875ZM0.679688 0.296875L1.52599 -0.23582L1.23186 -0.703125H0.679688V0.296875ZM5.56641 7.92578L4.71561 7.40029L4.38782 7.931L4.72029 8.45878L5.56641 7.92578ZM5.8125 7.52734L6.65846 6.99411L5.80388 5.63833L4.9617 7.00185L5.8125 7.52734ZM7.37109 10V11H9.18351L8.21706 9.46676L7.37109 10ZM6.87305 10L6.02693 10.533L6.32112 11H6.87305V10ZM3.98438 3.9707L4.82596 4.51083L5.16941 3.97568L4.83047 3.43768L3.98438 3.9707ZM3.73242 4.36328L2.88566 4.89525L3.72342 6.22875L4.57401 4.9034L3.73242 4.36328ZM1.17773 0.296875V-0.703125H-0.631477L0.330972 0.828847L1.17773 0.296875ZM1.66992 0.296875L2.51602 -0.236153L2.22183 -0.703125H1.66992V0.296875ZM6.06445 7.13477L5.21366 6.60927L4.88589 7.13995L5.21831 7.66772L6.06445 7.13477ZM6.31055 6.73633L7.15658 6.20319L6.30204 4.84713L5.45975 6.21084L6.31055 6.73633ZM8.36719 10V11H10.1793L9.21322 9.46686L8.36719 10ZM7.86914 10L7.02299 10.533L7.31717 11H7.86914V10ZM4.48242 3.17383L5.32971 3.70496L5.66331 3.17279L5.32877 2.6412L4.48242 3.17383ZM4.23633 3.56641L3.39055 4.09994L4.23899 5.44492L5.08362 4.09754L4.23633 3.56641ZM2.17383 0.296875V-0.703125H0.360659L1.32805 0.830412L2.17383 0.296875ZM2.67188 0.296875L3.51822 -0.235755L3.22409 -0.703125H2.67188V0.296875ZM6.56836 6.33789L5.71756 5.8124L5.39007 6.34262L5.72181 6.8702L6.56836 6.33789ZM6.81445 5.93945L7.66087 5.40693L6.80662 4.04915L5.96366 5.41396L6.81445 5.93945ZM9.36914 10V11H11.1797L10.2156 9.46748L9.36914 10ZM8.87109 10L8.02454 10.5323L8.31863 11H8.87109V10ZM4.98047 2.38281L5.83127 2.90831L6.15887 2.3779L5.82686 1.85025L4.98047 2.38281ZM4.73438 2.78125L3.88818 3.31412L4.74259 4.67093L5.58517 3.30674L4.73438 2.78125ZM3.16992 0.296875V-0.703125H1.35845L2.32372 0.829741L3.16992 0.296875ZM3.66797 0.296875L4.51436 -0.235686L4.22024 -0.703125H3.66797V0.296875ZM7.06055 5.54688L6.20975 5.02138L5.88187 5.55223L6.21456 6.08007L7.06055 5.54688ZM7.30664 5.14844L8.15257 4.61514L7.29795 3.25954L6.45584 4.62294L7.30664 5.14844ZM10.3652 10V11H12.1778L11.2112 9.4667L10.3652 10ZM9.86719 10L9.0212 10.5332L9.31541 11H9.86719V10ZM9.57422 0.296875V-0.703125H9.02195L8.72783 -0.235694L9.57422 0.296875ZM10.0723 0.296875L10.9187 0.829444L11.883 -0.703125H10.0723V0.296875ZM3.9668 10V11H4.51906L4.81318 10.5326L3.9668 10ZM3.46875 10L2.62236 9.46743L1.65803 11H3.46875V10ZM8.58398 0.296875V-0.703125H8.032L7.73783 -0.23606L8.58398 0.296875ZM9.07617 0.296875L9.92256 0.829444L10.8869 -0.703125H9.07617V0.296875ZM2.9707 10V11H3.52297L3.81709 10.5326L2.9707 10ZM2.47266 10L1.6265 9.46706L0.66101 11H2.47266V10ZM7.58203 0.296875V-0.703125H7.03005L6.73588 -0.23606L7.58203 0.296875ZM8.08008 0.296875L8.92623 0.82981L9.89172 -0.703125H8.08008V0.296875ZM1.96875 10V11H2.52073L2.81491 10.5329L1.96875 10ZM1.4707 10L0.624547 9.46706L-0.340943 11H1.4707V10ZM6.58594 0.296875V-0.703125H6.03395L5.73978 -0.23606L6.58594 0.296875ZM7.08398 0.296875L7.93014 0.82981L8.89563 -0.703125H7.08398V0.296875ZM0.972656 10V11H1.52464L1.81881 10.5329L0.972656 10ZM0.474609 10L-0.371547 9.46706L-1.33704 11H0.474609V10ZM2.64113 4.2214L2.38918 4.61984L4.07957 5.68876L4.33152 5.29032L2.64113 4.2214ZM4.08105 4.62219L1.02832 -0.235234L-0.665035 0.828984L2.3877 5.68641L4.08105 4.62219ZM0.181641 1.29688H0.679688V-0.703125H0.181641V1.29688ZM-0.16662 0.82957L2.64002 5.28855L4.33264 4.22316L1.52599 -0.23582L-0.16662 0.82957ZM6.4172 8.45127L6.6633 8.05284L4.9617 7.00185L4.71561 7.40029L6.4172 8.45127ZM4.96654 8.06058L6.52513 10.5332L8.21706 9.46676L6.65846 6.99411L4.96654 8.06058ZM7.37109 9H6.87305V11H7.37109V9ZM7.71916 9.467L6.41252 7.39278L4.72029 8.45878L6.02693 10.533L7.71916 9.467ZM3.14279 3.43058L2.89084 3.82316L4.57401 4.9034L4.82596 4.51083L3.14279 3.43058ZM4.57918 3.83131L2.0245 -0.235097L0.330972 0.828847L2.88566 4.89525L4.57918 3.83131ZM1.17773 1.29688H1.66992V-0.703125H1.17773V1.29688ZM0.823824 0.829903L3.13828 4.50373L4.83047 3.43768L2.51602 -0.236153L0.823824 0.829903ZM6.91525 7.66026L7.16134 7.26182L5.45975 6.21084L5.21366 6.60927L6.91525 7.66026ZM5.46452 7.26946L7.52116 10.5331L9.21322 9.46686L7.15658 6.20319L5.46452 7.26946ZM8.36719 9H7.86914V11H8.36719V9ZM8.71529 9.46705L6.9106 6.60181L5.21831 7.66772L7.02299 10.533L8.71529 9.46705ZM3.63513 2.64269L3.38904 3.03527L5.08362 4.09754L5.32971 3.70496L3.63513 2.64269ZM5.08211 3.03287L3.01961 -0.236662L1.32805 0.830412L3.39055 4.09994L5.08211 3.03287ZM2.17383 1.29688H2.67188V-0.703125H2.17383V1.29688ZM1.82553 0.829505L3.63607 3.70646L5.32877 2.6412L3.51822 -0.235755L1.82553 0.829505ZM7.41916 6.86338L7.66525 6.46495L5.96366 5.41396L5.71756 5.8124L7.41916 6.86338ZM5.96804 6.47197L8.52272 10.5325L10.2156 9.46748L7.66087 5.40693L5.96804 6.47197ZM9.36914 9H8.87109V11H9.36914V9ZM9.71764 9.46769L7.41491 5.80558L5.72181 6.8702L8.02454 10.5323L9.71764 9.46769ZM4.12967 1.85732L3.88358 2.25576L5.58517 3.30674L5.83127 2.90831L4.12967 1.85732ZM5.58057 2.24838L4.01612 -0.235991L2.32372 0.829741L3.88818 3.31412L5.58057 2.24838ZM3.16992 1.29688H3.66797V-0.703125H3.16992V1.29688ZM2.82158 0.829436L4.13408 2.91537L5.82686 1.85025L4.51436 -0.235686L2.82158 0.829436ZM7.91134 6.07237L8.15744 5.67393L6.45584 4.62294L6.20975 5.02138L7.91134 6.07237ZM6.46072 5.68174L9.51931 10.5333L11.2112 9.4667L8.15257 4.61514L6.46072 5.68174ZM10.3652 9H9.86719V11H10.3652V9ZM10.7132 9.4668L7.90654 5.01368L6.21456 6.08007L9.0212 10.5332L10.7132 9.4668ZM9.57422 1.29688H10.0723V-0.703125H9.57422V1.29688ZM9.22588 -0.235694L3.12041 9.46743L4.81318 10.5326L10.9187 0.829444L9.22588 -0.235694ZM3.9668 9H3.46875V11H3.9668V9ZM4.31514 10.5326L10.4206 0.829444L8.72783 -0.235694L2.62236 9.46743L4.31514 10.5326ZM8.58398 1.29688H9.07617V-0.703125H8.58398V1.29688ZM8.22979 -0.235694L2.12432 9.46743L3.81709 10.5326L9.92256 0.829444L8.22979 -0.235694ZM2.9707 9H2.47266V11H2.9707V9ZM3.31881 10.5329L9.43014 0.82981L7.73783 -0.23606L1.6265 9.46706L3.31881 10.5329ZM7.58203 1.29688H8.08008V-0.703125H7.58203V1.29688ZM7.23392 -0.23606L1.12259 9.46706L2.81491 10.5329L8.92623 0.82981L7.23392 -0.23606ZM1.96875 9H1.4707V11H1.96875V9ZM2.31686 10.5329L8.42819 0.82981L6.73588 -0.23606L0.624547 9.46706L2.31686 10.5329ZM6.58594 1.29688H7.08398V-0.703125H6.58594V1.29688ZM6.23783 -0.23606L0.1265 9.46706L1.81881 10.5329L7.93014 0.82981L6.23783 -0.23606ZM0.972656 9H0.474609V11H0.972656V9ZM1.32077 10.5329L7.43209 0.82981L5.73978 -0.23606L-0.371547 9.46706L1.32077 10.5329ZM20.3496 0.296875V-0.703125H19.3496V0.296875H20.3496ZM20.7715 0.296875H21.7715V-0.703125H20.7715V0.296875ZM20.7715 10V11H21.7715V10H20.7715ZM20.3496 10H19.3496V11H20.3496V10ZM11.0684 0.296875V-0.703125H10.0684V0.296875H11.0684ZM11.4902 0.296875H12.4902V-0.703125H11.4902V0.296875ZM11.4902 10V11H12.4902V10H11.4902ZM11.0684 10H10.0684V11H11.0684V10ZM19.5059 0.296875V-0.703125H18.5059V0.296875H19.5059ZM19.9277 0.296875H20.9277V-0.703125H19.9277V0.296875ZM19.9277 10V11H20.9277V10H19.9277ZM19.5059 10H18.5059V11H19.5059V10ZM18.6621 0.296875V-0.703125H17.6621V0.296875H18.6621ZM19.084 0.296875H20.084V-0.703125H19.084V0.296875ZM19.084 10V11H20.084V10H19.084ZM18.6621 10H17.6621V11H18.6621V10ZM17.8184 0.296875V-0.703125H16.8184V0.296875H17.8184ZM18.2402 0.296875H19.2402V-0.703125H18.2402V0.296875ZM18.2402 10V11H19.2402V10H18.2402ZM17.8184 10H16.8184V11H17.8184V10ZM17.8184 6.19727H18.8184V5.19727H17.8184V6.19727ZM14.0215 6.19727V5.19727H13.0215V6.19727H14.0215ZM14.0215 10V11H15.0215V10H14.0215ZM13.5996 10H12.5996V11H13.5996V10ZM13.5996 0.296875V-0.703125H12.5996V0.296875H13.5996ZM14.0215 0.296875H15.0215V-0.703125H14.0215V0.296875ZM14.0215 4.08789H13.0215V5.08789H14.0215V4.08789ZM17.8184 4.08789V5.08789H18.8184V4.08789H17.8184ZM12.7559 0.296875V-0.703125H11.7559V0.296875H12.7559ZM13.1777 0.296875H14.1777V-0.703125H13.1777V0.296875ZM13.1777 10V11H14.1777V10H13.1777ZM12.7559 10H11.7559V11H12.7559V10ZM11.9121 0.296875V-0.703125H10.9121V0.296875H11.9121ZM12.334 0.296875H13.334V-0.703125H12.334V0.296875ZM12.334 10V11H13.334V10H12.334ZM11.9121 10H10.9121V11H11.9121V10ZM17.8184 5.77539V6.77539H18.8184V5.77539H17.8184ZM17.8184 5.35352H18.8184V4.35352H17.8184V5.35352ZM14.0215 5.35352V4.35352H13.0215V5.35352H14.0215ZM14.0215 5.77539H13.0215V6.77539H14.0215V5.77539ZM17.8184 4.93164V5.93164H18.8184V4.93164H17.8184ZM17.8184 4.50977H18.8184V3.50977H17.8184V4.50977ZM14.0215 4.50977V3.50977H13.0215V4.50977H14.0215ZM14.0215 4.93164H13.0215V5.93164H14.0215V4.93164ZM20.3496 1.29688H20.7715V-0.703125H20.3496V1.29688ZM19.7715 0.296875V10H21.7715V0.296875H19.7715ZM20.7715 9H20.3496V11H20.7715V9ZM21.3496 10V0.296875H19.3496V10H21.3496ZM11.0684 1.29688H11.4902V-0.703125H11.0684V1.29688ZM10.4902 0.296875V10H12.4902V0.296875H10.4902ZM11.4902 9H11.0684V11H11.4902V9ZM12.0684 10V0.296875H10.0684V10H12.0684ZM19.5059 1.29688H19.9277V-0.703125H19.5059V1.29688ZM18.9277 0.296875V10H20.9277V0.296875H18.9277ZM19.9277 9H19.5059V11H19.9277V9ZM20.5059 10V0.296875H18.5059V10H20.5059ZM18.6621 1.29688H19.084V-0.703125H18.6621V1.29688ZM18.084 0.296875V10H20.084V0.296875H18.084ZM19.084 9H18.6621V11H19.084V9ZM19.6621 10V0.296875H17.6621V10H19.6621ZM17.8184 1.29688H18.2402V-0.703125H17.8184V1.29688ZM17.2402 0.296875V10H19.2402V0.296875H17.2402ZM18.2402 9H17.8184V11H18.2402V9ZM18.8184 10V6.19727H16.8184V10H18.8184ZM17.8184 5.19727H14.0215V7.19727H17.8184V5.19727ZM13.0215 6.19727V10H15.0215V6.19727H13.0215ZM14.0215 9H13.5996V11H14.0215V9ZM14.5996 10V0.296875H12.5996V10H14.5996ZM13.5996 1.29688H14.0215V-0.703125H13.5996V1.29688ZM13.0215 0.296875V4.08789H15.0215V0.296875H13.0215ZM14.0215 5.08789H17.8184V3.08789H14.0215V5.08789ZM18.8184 4.08789V0.296875H16.8184V4.08789H18.8184ZM12.7559 1.29688H13.1777V-0.703125H12.7559V1.29688ZM12.1777 0.296875V10H14.1777V0.296875H12.1777ZM13.1777 9H12.7559V11H13.1777V9ZM13.7559 10V0.296875H11.7559V10H13.7559ZM11.9121 1.29688H12.334V-0.703125H11.9121V1.29688ZM11.334 0.296875V10H13.334V0.296875H11.334ZM12.334 9H11.9121V11H12.334V9ZM12.9121 10V0.296875H10.9121V10H12.9121ZM18.8184 5.77539V5.35352H16.8184V5.77539H18.8184ZM17.8184 4.35352H14.0215V6.35352H17.8184V4.35352ZM13.0215 5.35352V5.77539H15.0215V5.35352H13.0215ZM14.0215 6.77539H17.8184V4.77539H14.0215V6.77539ZM18.8184 4.93164V4.50977H16.8184V4.93164H18.8184ZM17.8184 3.50977H14.0215V5.50977H17.8184V3.50977ZM13.0215 4.50977V4.93164H15.0215V4.50977H13.0215ZM14.0215 5.93164H17.8184V3.93164H14.0215V5.93164ZM31.166 0.296875V-0.703125H30.166V0.296875H31.166ZM31.5879 0.296875H32.5879V-0.703125H31.5879V0.296875ZM31.5879 10V11H32.5879V10H31.5879ZM31.166 10H30.166V11H31.166V10ZM21.8848 0.296875V-0.703125H20.8848V0.296875H21.8848ZM22.3066 0.296875H23.3066V-0.703125H22.3066V0.296875ZM22.3066 10V11H23.3066V10H22.3066ZM21.8848 10H20.8848V11H21.8848V10ZM30.3223 0.296875V-0.703125H29.3223V0.296875H30.3223ZM30.7441 0.296875H31.7441V-0.703125H30.7441V0.296875ZM30.7441 10V11H31.7441V10H30.7441ZM30.3223 10H29.3223V11H30.3223V10ZM29.4785 0.296875V-0.703125H28.4785V0.296875H29.4785ZM29.9004 0.296875H30.9004V-0.703125H29.9004V0.296875ZM29.9004 10V11H30.9004V10H29.9004ZM29.4785 10H28.4785V11H29.4785V10ZM28.6348 0.296875V-0.703125H27.6348V0.296875H28.6348ZM29.0566 0.296875H30.0566V-0.703125H29.0566V0.296875ZM29.0566 10V11H30.0566V10H29.0566ZM28.6348 10H27.6348V11H28.6348V10ZM28.6348 6.19727H29.6348V5.19727H28.6348V6.19727ZM24.8379 6.19727V5.19727H23.8379V6.19727H24.8379ZM24.8379 10V11H25.8379V10H24.8379ZM24.416 10H23.416V11H24.416V10ZM24.416 0.296875V-0.703125H23.416V0.296875H24.416ZM24.8379 0.296875H25.8379V-0.703125H24.8379V0.296875ZM24.8379 4.08789H23.8379V5.08789H24.8379V4.08789ZM28.6348 4.08789V5.08789H29.6348V4.08789H28.6348ZM23.5723 0.296875V-0.703125H22.5723V0.296875H23.5723ZM23.9941 0.296875H24.9941V-0.703125H23.9941V0.296875ZM23.9941 10V11H24.9941V10H23.9941ZM23.5723 10H22.5723V11H23.5723V10ZM22.7285 0.296875V-0.703125H21.7285V0.296875H22.7285ZM23.1504 0.296875H24.1504V-0.703125H23.1504V0.296875ZM23.1504 10V11H24.1504V10H23.1504ZM22.7285 10H21.7285V11H22.7285V10ZM28.6348 5.77539V6.77539H29.6348V5.77539H28.6348ZM28.6348 5.35352H29.6348V4.35352H28.6348V5.35352ZM24.8379 5.35352V4.35352H23.8379V5.35352H24.8379ZM24.8379 5.77539H23.8379V6.77539H24.8379V5.77539ZM28.6348 4.93164V5.93164H29.6348V4.93164H28.6348ZM28.6348 4.50977H29.6348V3.50977H28.6348V4.50977ZM24.8379 4.50977V3.50977H23.8379V4.50977H24.8379ZM24.8379 4.93164H23.8379V5.93164H24.8379V4.93164ZM31.166 1.29688H31.5879V-0.703125H31.166V1.29688ZM30.5879 0.296875V10H32.5879V0.296875H30.5879ZM31.5879 9H31.166V11H31.5879V9ZM32.166 10V0.296875H30.166V10H32.166ZM21.8848 1.29688H22.3066V-0.703125H21.8848V1.29688ZM21.3066 0.296875V10H23.3066V0.296875H21.3066ZM22.3066 9H21.8848V11H22.3066V9ZM22.8848 10V0.296875H20.8848V10H22.8848ZM30.3223 1.29688H30.7441V-0.703125H30.3223V1.29688ZM29.7441 0.296875V10H31.7441V0.296875H29.7441ZM30.7441 9H30.3223V11H30.7441V9ZM31.3223 10V0.296875H29.3223V10H31.3223ZM29.4785 1.29688H29.9004V-0.703125H29.4785V1.29688ZM28.9004 0.296875V10H30.9004V0.296875H28.9004ZM29.9004 9H29.4785V11H29.9004V9ZM30.4785 10V0.296875H28.4785V10H30.4785ZM28.6348 1.29688H29.0566V-0.703125H28.6348V1.29688ZM28.0566 0.296875V10H30.0566V0.296875H28.0566ZM29.0566 9H28.6348V11H29.0566V9ZM29.6348 10V6.19727H27.6348V10H29.6348ZM28.6348 5.19727H24.8379V7.19727H28.6348V5.19727ZM23.8379 6.19727V10H25.8379V6.19727H23.8379ZM24.8379 9H24.416V11H24.8379V9ZM25.416 10V0.296875H23.416V10H25.416ZM24.416 1.29688H24.8379V-0.703125H24.416V1.29688ZM23.8379 0.296875V4.08789H25.8379V0.296875H23.8379ZM24.8379 5.08789H28.6348V3.08789H24.8379V5.08789ZM29.6348 4.08789V0.296875H27.6348V4.08789H29.6348ZM23.5723 1.29688H23.9941V-0.703125H23.5723V1.29688ZM22.9941 0.296875V10H24.9941V0.296875H22.9941ZM23.9941 9H23.5723V11H23.9941V9ZM24.5723 10V0.296875H22.5723V10H24.5723ZM22.7285 1.29688H23.1504V-0.703125H22.7285V1.29688ZM22.1504 0.296875V10H24.1504V0.296875H22.1504ZM23.1504 9H22.7285V11H23.1504V9ZM23.7285 10V0.296875H21.7285V10H23.7285ZM29.6348 5.77539V5.35352H27.6348V5.77539H29.6348ZM28.6348 4.35352H24.8379V6.35352H28.6348V4.35352ZM23.8379 5.35352V5.77539H25.8379V5.35352H23.8379ZM24.8379 6.77539H28.6348V4.77539H24.8379V6.77539ZM29.6348 4.93164V4.50977H27.6348V4.93164H29.6348ZM28.6348 3.50977H24.8379V5.50977H28.6348V3.50977ZM23.8379 4.50977V4.93164H25.8379V4.50977H23.8379ZM24.8379 5.93164H28.6348V3.93164H24.8379V5.93164Z" fill="black" mask="url(#path-1-inside-1_1_2)"/>
</svg>
